<?xml version="1.0" standalone="no"?><svg xmlns="http://www.w3.org/2000/svg" viewBox="0 0 1440 320"><path fill="#3e64ff" fill-opacity="1" d="M0,96L30,106.7C60,117,120,139,180,160C240,181,300,203,360,218.7C420,235,480,245,540,240C600,235,660,213,720,213.3C780,213,840,235,900,250.7C960,267,1020,277,1080,256C1140,235,1200,181,1260,186.7C1320,192,1380,256,1410,288L1440,320L1440,0L1410,0C1380,0,1320,0,1260,0C1200,0,1140,0,1080,0C1020,0,960,0,900,0C840,0,780,0,720,0C660,0,600,0,540,0C480,0,420,0,360,0C300,0,240,0,180,0C120,0,60,0,30,0L0,0Z"></path></svg>